M48
;DRILL file {KiCad (2016-09-14 revision 83ed3c9)-makepkg} date 09/24/16 16:23:31
;FORMAT={-:-/ absolute / inch / decimal}
FMAT,2
INCH,TZ
T1C0.016
T2C0.030
T3C0.035
T4C0.040
%
G90
G05
M72
T1
X4.592Y-3.025
X4.64Y-2.885
X4.745Y-3.08
T2
X4.1755Y-2.94
X4.1755Y-3.11
X4.2345Y-2.94
X4.2345Y-3.11
X4.595Y-3.1405
X4.595Y-3.1995
T3
X4.41Y-2.89
X4.41Y-2.94
X4.41Y-2.99
T4
X4.04Y-2.838
X4.04Y-2.938
X4.04Y-3.11
X4.04Y-3.21
X4.875Y-2.835
X4.875Y-2.935
X4.875Y-3.11
X4.875Y-3.21
T0
M30
