G04 #@! TF.FileFunction,Copper,L1,Top,Signal*
%FSLAX46Y46*%
G04 Gerber Fmt 4.6, Leading zero omitted, Abs format (unit mm)*
G04 Created by KiCad (PCBNEW (2016-09-14 revision 83ed3c9)-makepkg) date 09/24/16 16:23:25*
%MOMM*%
%LPD*%
G01*
G04 APERTURE LIST*
%ADD10C,0.100000*%
%ADD11C,1.270000*%
%ADD12R,2.032000X2.032000*%
%ADD13O,2.032000X2.032000*%
%ADD14O,1.900000X1.000000*%
%ADD15C,0.800000*%
%ADD16C,0.500000*%
%ADD17C,0.250000*%
G04 APERTURE END LIST*
D10*
D11*
X107557000Y-74676000D03*
X106057000Y-74676000D03*
X107557000Y-78994000D03*
X106057000Y-78994000D03*
X116713000Y-81268000D03*
X116713000Y-79768000D03*
D12*
X123825000Y-72009000D03*
D13*
X123825000Y-74549000D03*
D12*
X102616000Y-72085200D03*
D13*
X102616000Y-74625200D03*
D12*
X102616000Y-78994000D03*
D13*
X102616000Y-81534000D03*
D12*
X123825000Y-81534000D03*
D13*
X123825000Y-78994000D03*
D14*
X112014000Y-75946000D03*
X112014000Y-74676000D03*
X112014000Y-73406000D03*
D10*
G36*
X116925896Y-74486723D02*
X116950553Y-74490381D01*
X116974732Y-74496437D01*
X116998202Y-74504835D01*
X117020735Y-74515492D01*
X117042115Y-74528307D01*
X117062136Y-74543155D01*
X117080605Y-74559895D01*
X117097345Y-74578364D01*
X117112193Y-74598385D01*
X117125008Y-74619765D01*
X117135665Y-74642298D01*
X117144063Y-74665768D01*
X117150119Y-74689947D01*
X117153777Y-74714604D01*
X117155000Y-74739500D01*
X117155000Y-75882500D01*
X117153777Y-75907396D01*
X117150119Y-75932053D01*
X117144063Y-75956232D01*
X117135665Y-75979702D01*
X117125008Y-76002235D01*
X117112193Y-76023615D01*
X117097345Y-76043636D01*
X117080605Y-76062105D01*
X117062136Y-76078845D01*
X117042115Y-76093693D01*
X117020735Y-76106508D01*
X116998202Y-76117165D01*
X116974732Y-76125563D01*
X116950553Y-76131619D01*
X116925896Y-76135277D01*
X116901000Y-76136500D01*
X116393000Y-76136500D01*
X116368104Y-76135277D01*
X116343447Y-76131619D01*
X116319268Y-76125563D01*
X116295798Y-76117165D01*
X116273265Y-76106508D01*
X116251885Y-76093693D01*
X116231864Y-76078845D01*
X116213395Y-76062105D01*
X116196655Y-76043636D01*
X116181807Y-76023615D01*
X116168992Y-76002235D01*
X116158335Y-75979702D01*
X116149937Y-75956232D01*
X116143881Y-75932053D01*
X116140223Y-75907396D01*
X116139000Y-75882500D01*
X116139000Y-74739500D01*
X116140223Y-74714604D01*
X116143881Y-74689947D01*
X116149937Y-74665768D01*
X116158335Y-74642298D01*
X116168992Y-74619765D01*
X116181807Y-74598385D01*
X116196655Y-74578364D01*
X116213395Y-74559895D01*
X116231864Y-74543155D01*
X116251885Y-74528307D01*
X116273265Y-74515492D01*
X116295798Y-74504835D01*
X116319268Y-74496437D01*
X116343447Y-74490381D01*
X116368104Y-74486723D01*
X116393000Y-74485500D01*
X116901000Y-74485500D01*
X116925896Y-74486723D01*
X116925896Y-74486723D01*
G37*
G36*
X115025896Y-74486723D02*
X115050553Y-74490381D01*
X115074732Y-74496437D01*
X115098202Y-74504835D01*
X115120735Y-74515492D01*
X115142115Y-74528307D01*
X115162136Y-74543155D01*
X115180605Y-74559895D01*
X115197345Y-74578364D01*
X115212193Y-74598385D01*
X115225008Y-74619765D01*
X115235665Y-74642298D01*
X115244063Y-74665768D01*
X115250119Y-74689947D01*
X115253777Y-74714604D01*
X115255000Y-74739500D01*
X115255000Y-75882500D01*
X115253777Y-75907396D01*
X115250119Y-75932053D01*
X115244063Y-75956232D01*
X115235665Y-75979702D01*
X115225008Y-76002235D01*
X115212193Y-76023615D01*
X115197345Y-76043636D01*
X115180605Y-76062105D01*
X115162136Y-76078845D01*
X115142115Y-76093693D01*
X115120735Y-76106508D01*
X115098202Y-76117165D01*
X115074732Y-76125563D01*
X115050553Y-76131619D01*
X115025896Y-76135277D01*
X115001000Y-76136500D01*
X114493000Y-76136500D01*
X114468104Y-76135277D01*
X114443447Y-76131619D01*
X114419268Y-76125563D01*
X114395798Y-76117165D01*
X114373265Y-76106508D01*
X114351885Y-76093693D01*
X114331864Y-76078845D01*
X114313395Y-76062105D01*
X114296655Y-76043636D01*
X114281807Y-76023615D01*
X114268992Y-76002235D01*
X114258335Y-75979702D01*
X114249937Y-75956232D01*
X114243881Y-75932053D01*
X114240223Y-75907396D01*
X114239000Y-75882500D01*
X114239000Y-74739500D01*
X114240223Y-74714604D01*
X114243881Y-74689947D01*
X114249937Y-74665768D01*
X114258335Y-74642298D01*
X114268992Y-74619765D01*
X114281807Y-74598385D01*
X114296655Y-74578364D01*
X114313395Y-74559895D01*
X114331864Y-74543155D01*
X114351885Y-74528307D01*
X114373265Y-74515492D01*
X114395798Y-74504835D01*
X114419268Y-74496437D01*
X114443447Y-74490381D01*
X114468104Y-74486723D01*
X114493000Y-74485500D01*
X115001000Y-74485500D01*
X115025896Y-74486723D01*
X115025896Y-74486723D01*
G37*
G36*
X112610396Y-79315223D02*
X112635053Y-79318881D01*
X112659232Y-79324937D01*
X112682702Y-79333335D01*
X112705235Y-79343992D01*
X112726615Y-79356807D01*
X112746636Y-79371655D01*
X112765105Y-79388395D01*
X112781845Y-79406864D01*
X112796693Y-79426885D01*
X112809508Y-79448265D01*
X112820165Y-79470798D01*
X112828563Y-79494268D01*
X112834619Y-79518447D01*
X112838277Y-79543104D01*
X112839500Y-79568000D01*
X112839500Y-80076000D01*
X112838277Y-80100896D01*
X112834619Y-80125553D01*
X112828563Y-80149732D01*
X112820165Y-80173202D01*
X112809508Y-80195735D01*
X112796693Y-80217115D01*
X112781845Y-80237136D01*
X112765105Y-80255605D01*
X112746636Y-80272345D01*
X112726615Y-80287193D01*
X112705235Y-80300008D01*
X112682702Y-80310665D01*
X112659232Y-80319063D01*
X112635053Y-80325119D01*
X112610396Y-80328777D01*
X112585500Y-80330000D01*
X111442500Y-80330000D01*
X111417604Y-80328777D01*
X111392947Y-80325119D01*
X111368768Y-80319063D01*
X111345298Y-80310665D01*
X111322765Y-80300008D01*
X111301385Y-80287193D01*
X111281364Y-80272345D01*
X111262895Y-80255605D01*
X111246155Y-80237136D01*
X111231307Y-80217115D01*
X111218492Y-80195735D01*
X111207835Y-80173202D01*
X111199437Y-80149732D01*
X111193381Y-80125553D01*
X111189723Y-80100896D01*
X111188500Y-80076000D01*
X111188500Y-79568000D01*
X111189723Y-79543104D01*
X111193381Y-79518447D01*
X111199437Y-79494268D01*
X111207835Y-79470798D01*
X111218492Y-79448265D01*
X111231307Y-79426885D01*
X111246155Y-79406864D01*
X111262895Y-79388395D01*
X111281364Y-79371655D01*
X111301385Y-79356807D01*
X111322765Y-79343992D01*
X111345298Y-79333335D01*
X111368768Y-79324937D01*
X111392947Y-79318881D01*
X111417604Y-79315223D01*
X111442500Y-79314000D01*
X112585500Y-79314000D01*
X112610396Y-79315223D01*
X112610396Y-79315223D01*
G37*
G36*
X112610396Y-81215223D02*
X112635053Y-81218881D01*
X112659232Y-81224937D01*
X112682702Y-81233335D01*
X112705235Y-81243992D01*
X112726615Y-81256807D01*
X112746636Y-81271655D01*
X112765105Y-81288395D01*
X112781845Y-81306864D01*
X112796693Y-81326885D01*
X112809508Y-81348265D01*
X112820165Y-81370798D01*
X112828563Y-81394268D01*
X112834619Y-81418447D01*
X112838277Y-81443104D01*
X112839500Y-81468000D01*
X112839500Y-81976000D01*
X112838277Y-82000896D01*
X112834619Y-82025553D01*
X112828563Y-82049732D01*
X112820165Y-82073202D01*
X112809508Y-82095735D01*
X112796693Y-82117115D01*
X112781845Y-82137136D01*
X112765105Y-82155605D01*
X112746636Y-82172345D01*
X112726615Y-82187193D01*
X112705235Y-82200008D01*
X112682702Y-82210665D01*
X112659232Y-82219063D01*
X112635053Y-82225119D01*
X112610396Y-82228777D01*
X112585500Y-82230000D01*
X111442500Y-82230000D01*
X111417604Y-82228777D01*
X111392947Y-82225119D01*
X111368768Y-82219063D01*
X111345298Y-82210665D01*
X111322765Y-82200008D01*
X111301385Y-82187193D01*
X111281364Y-82172345D01*
X111262895Y-82155605D01*
X111246155Y-82137136D01*
X111231307Y-82117115D01*
X111218492Y-82095735D01*
X111207835Y-82073202D01*
X111199437Y-82049732D01*
X111193381Y-82025553D01*
X111189723Y-82000896D01*
X111188500Y-81976000D01*
X111188500Y-81468000D01*
X111189723Y-81443104D01*
X111193381Y-81418447D01*
X111199437Y-81394268D01*
X111207835Y-81370798D01*
X111218492Y-81348265D01*
X111231307Y-81326885D01*
X111246155Y-81306864D01*
X111262895Y-81288395D01*
X111281364Y-81271655D01*
X111301385Y-81256807D01*
X111322765Y-81243992D01*
X111345298Y-81233335D01*
X111368768Y-81224937D01*
X111392947Y-81218881D01*
X111417604Y-81215223D01*
X111442500Y-81214000D01*
X112585500Y-81214000D01*
X112610396Y-81215223D01*
X112610396Y-81215223D01*
G37*
G36*
X116925896Y-72454723D02*
X116950553Y-72458381D01*
X116974732Y-72464437D01*
X116998202Y-72472835D01*
X117020735Y-72483492D01*
X117042115Y-72496307D01*
X117062136Y-72511155D01*
X117080605Y-72527895D01*
X117097345Y-72546364D01*
X117112193Y-72566385D01*
X117125008Y-72587765D01*
X117135665Y-72610298D01*
X117144063Y-72633768D01*
X117150119Y-72657947D01*
X117153777Y-72682604D01*
X117155000Y-72707500D01*
X117155000Y-73850500D01*
X117153777Y-73875396D01*
X117150119Y-73900053D01*
X117144063Y-73924232D01*
X117135665Y-73947702D01*
X117125008Y-73970235D01*
X117112193Y-73991615D01*
X117097345Y-74011636D01*
X117080605Y-74030105D01*
X117062136Y-74046845D01*
X117042115Y-74061693D01*
X117020735Y-74074508D01*
X116998202Y-74085165D01*
X116974732Y-74093563D01*
X116950553Y-74099619D01*
X116925896Y-74103277D01*
X116901000Y-74104500D01*
X116393000Y-74104500D01*
X116368104Y-74103277D01*
X116343447Y-74099619D01*
X116319268Y-74093563D01*
X116295798Y-74085165D01*
X116273265Y-74074508D01*
X116251885Y-74061693D01*
X116231864Y-74046845D01*
X116213395Y-74030105D01*
X116196655Y-74011636D01*
X116181807Y-73991615D01*
X116168992Y-73970235D01*
X116158335Y-73947702D01*
X116149937Y-73924232D01*
X116143881Y-73900053D01*
X116140223Y-73875396D01*
X116139000Y-73850500D01*
X116139000Y-72707500D01*
X116140223Y-72682604D01*
X116143881Y-72657947D01*
X116149937Y-72633768D01*
X116158335Y-72610298D01*
X116168992Y-72587765D01*
X116181807Y-72566385D01*
X116196655Y-72546364D01*
X116213395Y-72527895D01*
X116231864Y-72511155D01*
X116251885Y-72496307D01*
X116273265Y-72483492D01*
X116295798Y-72472835D01*
X116319268Y-72464437D01*
X116343447Y-72458381D01*
X116368104Y-72454723D01*
X116393000Y-72453500D01*
X116901000Y-72453500D01*
X116925896Y-72454723D01*
X116925896Y-72454723D01*
G37*
G36*
X115025896Y-72454723D02*
X115050553Y-72458381D01*
X115074732Y-72464437D01*
X115098202Y-72472835D01*
X115120735Y-72483492D01*
X115142115Y-72496307D01*
X115162136Y-72511155D01*
X115180605Y-72527895D01*
X115197345Y-72546364D01*
X115212193Y-72566385D01*
X115225008Y-72587765D01*
X115235665Y-72610298D01*
X115244063Y-72633768D01*
X115250119Y-72657947D01*
X115253777Y-72682604D01*
X115255000Y-72707500D01*
X115255000Y-73850500D01*
X115253777Y-73875396D01*
X115250119Y-73900053D01*
X115244063Y-73924232D01*
X115235665Y-73947702D01*
X115225008Y-73970235D01*
X115212193Y-73991615D01*
X115197345Y-74011636D01*
X115180605Y-74030105D01*
X115162136Y-74046845D01*
X115142115Y-74061693D01*
X115120735Y-74074508D01*
X115098202Y-74085165D01*
X115074732Y-74093563D01*
X115050553Y-74099619D01*
X115025896Y-74103277D01*
X115001000Y-74104500D01*
X114493000Y-74104500D01*
X114468104Y-74103277D01*
X114443447Y-74099619D01*
X114419268Y-74093563D01*
X114395798Y-74085165D01*
X114373265Y-74074508D01*
X114351885Y-74061693D01*
X114331864Y-74046845D01*
X114313395Y-74030105D01*
X114296655Y-74011636D01*
X114281807Y-73991615D01*
X114268992Y-73970235D01*
X114258335Y-73947702D01*
X114249937Y-73924232D01*
X114243881Y-73900053D01*
X114240223Y-73875396D01*
X114239000Y-73850500D01*
X114239000Y-72707500D01*
X114240223Y-72682604D01*
X114243881Y-72657947D01*
X114249937Y-72633768D01*
X114258335Y-72610298D01*
X114268992Y-72587765D01*
X114281807Y-72566385D01*
X114296655Y-72546364D01*
X114313395Y-72527895D01*
X114331864Y-72511155D01*
X114351885Y-72496307D01*
X114373265Y-72483492D01*
X114395798Y-72472835D01*
X114419268Y-72464437D01*
X114443447Y-72458381D01*
X114468104Y-72454723D01*
X114493000Y-72453500D01*
X115001000Y-72453500D01*
X115025896Y-72454723D01*
X115025896Y-72454723D01*
G37*
G36*
X121119396Y-78934223D02*
X121144053Y-78937881D01*
X121168232Y-78943937D01*
X121191702Y-78952335D01*
X121214235Y-78962992D01*
X121235615Y-78975807D01*
X121255636Y-78990655D01*
X121274105Y-79007395D01*
X121290845Y-79025864D01*
X121305693Y-79045885D01*
X121318508Y-79067265D01*
X121329165Y-79089798D01*
X121337563Y-79113268D01*
X121343619Y-79137447D01*
X121347277Y-79162104D01*
X121348500Y-79187000D01*
X121348500Y-79695000D01*
X121347277Y-79719896D01*
X121343619Y-79744553D01*
X121337563Y-79768732D01*
X121329165Y-79792202D01*
X121318508Y-79814735D01*
X121305693Y-79836115D01*
X121290845Y-79856136D01*
X121274105Y-79874605D01*
X121255636Y-79891345D01*
X121235615Y-79906193D01*
X121214235Y-79919008D01*
X121191702Y-79929665D01*
X121168232Y-79938063D01*
X121144053Y-79944119D01*
X121119396Y-79947777D01*
X121094500Y-79949000D01*
X119951500Y-79949000D01*
X119926604Y-79947777D01*
X119901947Y-79944119D01*
X119877768Y-79938063D01*
X119854298Y-79929665D01*
X119831765Y-79919008D01*
X119810385Y-79906193D01*
X119790364Y-79891345D01*
X119771895Y-79874605D01*
X119755155Y-79856136D01*
X119740307Y-79836115D01*
X119727492Y-79814735D01*
X119716835Y-79792202D01*
X119708437Y-79768732D01*
X119702381Y-79744553D01*
X119698723Y-79719896D01*
X119697500Y-79695000D01*
X119697500Y-79187000D01*
X119698723Y-79162104D01*
X119702381Y-79137447D01*
X119708437Y-79113268D01*
X119716835Y-79089798D01*
X119727492Y-79067265D01*
X119740307Y-79045885D01*
X119755155Y-79025864D01*
X119771895Y-79007395D01*
X119790364Y-78990655D01*
X119810385Y-78975807D01*
X119831765Y-78962992D01*
X119854298Y-78952335D01*
X119877768Y-78943937D01*
X119901947Y-78937881D01*
X119926604Y-78934223D01*
X119951500Y-78933000D01*
X121094500Y-78933000D01*
X121119396Y-78934223D01*
X121119396Y-78934223D01*
G37*
G36*
X121119396Y-80834223D02*
X121144053Y-80837881D01*
X121168232Y-80843937D01*
X121191702Y-80852335D01*
X121214235Y-80862992D01*
X121235615Y-80875807D01*
X121255636Y-80890655D01*
X121274105Y-80907395D01*
X121290845Y-80925864D01*
X121305693Y-80945885D01*
X121318508Y-80967265D01*
X121329165Y-80989798D01*
X121337563Y-81013268D01*
X121343619Y-81037447D01*
X121347277Y-81062104D01*
X121348500Y-81087000D01*
X121348500Y-81595000D01*
X121347277Y-81619896D01*
X121343619Y-81644553D01*
X121337563Y-81668732D01*
X121329165Y-81692202D01*
X121318508Y-81714735D01*
X121305693Y-81736115D01*
X121290845Y-81756136D01*
X121274105Y-81774605D01*
X121255636Y-81791345D01*
X121235615Y-81806193D01*
X121214235Y-81819008D01*
X121191702Y-81829665D01*
X121168232Y-81838063D01*
X121144053Y-81844119D01*
X121119396Y-81847777D01*
X121094500Y-81849000D01*
X119951500Y-81849000D01*
X119926604Y-81847777D01*
X119901947Y-81844119D01*
X119877768Y-81838063D01*
X119854298Y-81829665D01*
X119831765Y-81819008D01*
X119810385Y-81806193D01*
X119790364Y-81791345D01*
X119771895Y-81774605D01*
X119755155Y-81756136D01*
X119740307Y-81736115D01*
X119727492Y-81714735D01*
X119716835Y-81692202D01*
X119708437Y-81668732D01*
X119702381Y-81644553D01*
X119698723Y-81619896D01*
X119697500Y-81595000D01*
X119697500Y-81087000D01*
X119698723Y-81062104D01*
X119702381Y-81037447D01*
X119708437Y-81013268D01*
X119716835Y-80989798D01*
X119727492Y-80967265D01*
X119740307Y-80945885D01*
X119755155Y-80925864D01*
X119771895Y-80907395D01*
X119790364Y-80890655D01*
X119810385Y-80875807D01*
X119831765Y-80862992D01*
X119854298Y-80852335D01*
X119877768Y-80843937D01*
X119901947Y-80837881D01*
X119926604Y-80834223D01*
X119951500Y-80833000D01*
X121094500Y-80833000D01*
X121119396Y-80834223D01*
X121119396Y-80834223D01*
G37*
D15*
X117856000Y-73279000D03*
X120523000Y-78232000D03*
X116636800Y-76835000D03*
D16*
X116647000Y-73279000D02*
X117856000Y-73279000D01*
X120523000Y-79441000D02*
X120523000Y-78232000D01*
X116647000Y-75311000D02*
X116647000Y-76824800D01*
D17*
X116647000Y-76824800D02*
X116636800Y-76835000D01*
D16*
X106057000Y-74676000D02*
X106057000Y-73777975D01*
X106057000Y-73777975D02*
X106057000Y-72910000D01*
X106057000Y-78994000D02*
X106057000Y-78095975D01*
X106057000Y-78095975D02*
X106057000Y-74676000D01*
X106057000Y-80264000D02*
X106057000Y-78994000D01*
X105232200Y-72085200D02*
X106057000Y-72910000D01*
X102616000Y-72085200D02*
X105232200Y-72085200D01*
X106057000Y-80264000D02*
X107515000Y-81722000D01*
X107515000Y-81722000D02*
X112014000Y-81722000D01*
X123825000Y-81534000D02*
X120716000Y-81534000D01*
D17*
X120716000Y-81534000D02*
X120523000Y-81341000D01*
D16*
X116713000Y-81268000D02*
X120450000Y-81268000D01*
D17*
X120450000Y-81268000D02*
X120523000Y-81341000D01*
D16*
X112014000Y-79822000D02*
X116659000Y-79822000D01*
X112014000Y-79822000D02*
X112014000Y-75946000D01*
D17*
X116659000Y-79822000D02*
X116713000Y-79768000D01*
D16*
X114747000Y-75311000D02*
X113912850Y-75311000D01*
X113912850Y-75311000D02*
X113277850Y-74676000D01*
X113277850Y-74676000D02*
X112014000Y-74676000D01*
X123825000Y-72009000D02*
X121475500Y-72009000D01*
X110426500Y-74676000D02*
X112014000Y-74676000D01*
X109791500Y-74041000D02*
X110426500Y-74676000D01*
X109791500Y-71691500D02*
X109791500Y-74041000D01*
X110680500Y-70802500D02*
X109791500Y-71691500D01*
X120269000Y-70802500D02*
X110680500Y-70802500D01*
X121475500Y-72009000D02*
X120269000Y-70802500D01*
D17*
X114493000Y-75057000D02*
X114747000Y-75311000D01*
D16*
X102616000Y-74625200D02*
X102616000Y-78994000D01*
X112014000Y-73406000D02*
X114795366Y-73406000D01*
X114795366Y-73406000D02*
X114798508Y-73409142D01*
M02*
