G04 #@! TF.FileFunction,Legend,Bot*
%FSLAX46Y46*%
G04 Gerber Fmt 4.6, Leading zero omitted, Abs format (unit mm)*
G04 Created by KiCad (PCBNEW (2016-09-14 revision 83ed3c9)-makepkg) date 09/24/16 16:23:25*
%MOMM*%
%LPD*%
G01*
G04 APERTURE LIST*
%ADD10C,0.100000*%
%ADD11C,0.250000*%
%ADD12C,0.300000*%
G04 APERTURE END LIST*
D10*
D11*
X121463333Y-77967619D02*
X121463333Y-76867619D01*
X121201428Y-76867619D01*
X121044285Y-76920000D01*
X120939523Y-77024761D01*
X120887142Y-77129523D01*
X120834761Y-77339047D01*
X120834761Y-77496190D01*
X120887142Y-77705714D01*
X120939523Y-77810476D01*
X121044285Y-77915238D01*
X121201428Y-77967619D01*
X121463333Y-77967619D01*
X119944285Y-77915238D02*
X120049047Y-77967619D01*
X120258571Y-77967619D01*
X120363333Y-77915238D01*
X120415714Y-77810476D01*
X120415714Y-77391428D01*
X120363333Y-77286666D01*
X120258571Y-77234285D01*
X120049047Y-77234285D01*
X119944285Y-77286666D01*
X119891904Y-77391428D01*
X119891904Y-77496190D01*
X120415714Y-77600952D01*
X119472857Y-77915238D02*
X119368095Y-77967619D01*
X119158571Y-77967619D01*
X119053809Y-77915238D01*
X119001428Y-77810476D01*
X119001428Y-77758095D01*
X119053809Y-77653333D01*
X119158571Y-77600952D01*
X119315714Y-77600952D01*
X119420476Y-77548571D01*
X119472857Y-77443809D01*
X119472857Y-77391428D01*
X119420476Y-77286666D01*
X119315714Y-77234285D01*
X119158571Y-77234285D01*
X119053809Y-77286666D01*
X118530000Y-77967619D02*
X118530000Y-77234285D01*
X118530000Y-76867619D02*
X118582380Y-76920000D01*
X118530000Y-76972380D01*
X118477619Y-76920000D01*
X118530000Y-76867619D01*
X118530000Y-76972380D01*
X117534761Y-77234285D02*
X117534761Y-78124761D01*
X117587142Y-78229523D01*
X117639523Y-78281904D01*
X117744285Y-78334285D01*
X117901428Y-78334285D01*
X118006190Y-78281904D01*
X117534761Y-77915238D02*
X117639523Y-77967619D01*
X117849047Y-77967619D01*
X117953809Y-77915238D01*
X118006190Y-77862857D01*
X118058571Y-77758095D01*
X118058571Y-77443809D01*
X118006190Y-77339047D01*
X117953809Y-77286666D01*
X117849047Y-77234285D01*
X117639523Y-77234285D01*
X117534761Y-77286666D01*
X117010952Y-77234285D02*
X117010952Y-77967619D01*
X117010952Y-77339047D02*
X116958571Y-77286666D01*
X116853809Y-77234285D01*
X116696666Y-77234285D01*
X116591904Y-77286666D01*
X116539523Y-77391428D01*
X116539523Y-77967619D01*
X115596666Y-77915238D02*
X115701428Y-77967619D01*
X115910952Y-77967619D01*
X116015714Y-77915238D01*
X116068095Y-77810476D01*
X116068095Y-77391428D01*
X116015714Y-77286666D01*
X115910952Y-77234285D01*
X115701428Y-77234285D01*
X115596666Y-77286666D01*
X115544285Y-77391428D01*
X115544285Y-77496190D01*
X116068095Y-77600952D01*
X114601428Y-77967619D02*
X114601428Y-76867619D01*
X114601428Y-77915238D02*
X114706190Y-77967619D01*
X114915714Y-77967619D01*
X115020476Y-77915238D01*
X115072857Y-77862857D01*
X115125238Y-77758095D01*
X115125238Y-77443809D01*
X115072857Y-77339047D01*
X115020476Y-77286666D01*
X114915714Y-77234285D01*
X114706190Y-77234285D01*
X114601428Y-77286666D01*
X113239523Y-77967619D02*
X113239523Y-76867619D01*
X113239523Y-77286666D02*
X113134761Y-77234285D01*
X112925238Y-77234285D01*
X112820476Y-77286666D01*
X112768095Y-77339047D01*
X112715714Y-77443809D01*
X112715714Y-77758095D01*
X112768095Y-77862857D01*
X112820476Y-77915238D01*
X112925238Y-77967619D01*
X113134761Y-77967619D01*
X113239523Y-77915238D01*
X112349047Y-77234285D02*
X112087142Y-77967619D01*
X111825238Y-77234285D02*
X112087142Y-77967619D01*
X112191904Y-78229523D01*
X112244285Y-78281904D01*
X112349047Y-78334285D01*
X110096666Y-77967619D02*
X110096666Y-77391428D01*
X110149047Y-77286666D01*
X110253809Y-77234285D01*
X110463333Y-77234285D01*
X110568095Y-77286666D01*
X110096666Y-77915238D02*
X110201428Y-77967619D01*
X110463333Y-77967619D01*
X110568095Y-77915238D01*
X110620476Y-77810476D01*
X110620476Y-77705714D01*
X110568095Y-77600952D01*
X110463333Y-77548571D01*
X110201428Y-77548571D01*
X110096666Y-77496190D01*
X109101428Y-77967619D02*
X109101428Y-76867619D01*
X109101428Y-77915238D02*
X109206190Y-77967619D01*
X109415714Y-77967619D01*
X109520476Y-77915238D01*
X109572857Y-77862857D01*
X109625238Y-77758095D01*
X109625238Y-77443809D01*
X109572857Y-77339047D01*
X109520476Y-77286666D01*
X109415714Y-77234285D01*
X109206190Y-77234285D01*
X109101428Y-77286666D01*
X108106190Y-77967619D02*
X108106190Y-77391428D01*
X108158571Y-77286666D01*
X108263333Y-77234285D01*
X108472857Y-77234285D01*
X108577619Y-77286666D01*
X108106190Y-77915238D02*
X108210952Y-77967619D01*
X108472857Y-77967619D01*
X108577619Y-77915238D01*
X108630000Y-77810476D01*
X108630000Y-77705714D01*
X108577619Y-77600952D01*
X108472857Y-77548571D01*
X108210952Y-77548571D01*
X108106190Y-77496190D01*
X107582380Y-77967619D02*
X107582380Y-77234285D01*
X107582380Y-77339047D02*
X107530000Y-77286666D01*
X107425238Y-77234285D01*
X107268095Y-77234285D01*
X107163333Y-77286666D01*
X107110952Y-77391428D01*
X107110952Y-77967619D01*
X107110952Y-77391428D02*
X107058571Y-77286666D01*
X106953809Y-77234285D01*
X106796666Y-77234285D01*
X106691904Y-77286666D01*
X106639523Y-77391428D01*
X106639523Y-77967619D01*
X106115714Y-77234285D02*
X106115714Y-78177142D01*
X106168095Y-78281904D01*
X106272857Y-78334285D01*
X106325238Y-78334285D01*
X106115714Y-76867619D02*
X106168095Y-76920000D01*
X106115714Y-76972380D01*
X106063333Y-76920000D01*
X106115714Y-76867619D01*
X106115714Y-76972380D01*
X105696666Y-77234285D02*
X105434761Y-77967619D01*
X105172857Y-77234285D01*
X104753809Y-77967619D02*
X104753809Y-77234285D01*
X104753809Y-77443809D02*
X104701428Y-77339047D01*
X104649047Y-77286666D01*
X104544285Y-77234285D01*
X104439523Y-77234285D01*
D12*
X121769000Y-71187571D02*
X121483285Y-71187571D01*
X121340428Y-71259000D01*
X121197571Y-71401857D01*
X121126142Y-71687571D01*
X121126142Y-72187571D01*
X121197571Y-72473285D01*
X121340428Y-72616142D01*
X121483285Y-72687571D01*
X121769000Y-72687571D01*
X121911857Y-72616142D01*
X122054714Y-72473285D01*
X122126142Y-72187571D01*
X122126142Y-71687571D01*
X122054714Y-71401857D01*
X121911857Y-71259000D01*
X121769000Y-71187571D01*
X120483285Y-71187571D02*
X120483285Y-72401857D01*
X120411857Y-72544714D01*
X120340428Y-72616142D01*
X120197571Y-72687571D01*
X119911857Y-72687571D01*
X119769000Y-72616142D01*
X119697571Y-72544714D01*
X119626142Y-72401857D01*
X119626142Y-71187571D01*
X119126142Y-71187571D02*
X118269000Y-71187571D01*
X118697571Y-72687571D02*
X118697571Y-71187571D01*
X121411857Y-73926000D02*
X121554714Y-73854571D01*
X121769000Y-73854571D01*
X121983285Y-73926000D01*
X122126142Y-74068857D01*
X122197571Y-74211714D01*
X122269000Y-74497428D01*
X122269000Y-74711714D01*
X122197571Y-74997428D01*
X122126142Y-75140285D01*
X121983285Y-75283142D01*
X121769000Y-75354571D01*
X121626142Y-75354571D01*
X121411857Y-75283142D01*
X121340428Y-75211714D01*
X121340428Y-74711714D01*
X121626142Y-74711714D01*
X120697571Y-75354571D02*
X120697571Y-73854571D01*
X119840428Y-75354571D01*
X119840428Y-73854571D01*
X119126142Y-75354571D02*
X119126142Y-73854571D01*
X118769000Y-73854571D01*
X118554714Y-73926000D01*
X118411857Y-74068857D01*
X118340428Y-74211714D01*
X118269000Y-74497428D01*
X118269000Y-74711714D01*
X118340428Y-74997428D01*
X118411857Y-75140285D01*
X118554714Y-75283142D01*
X118769000Y-75354571D01*
X119126142Y-75354571D01*
X121411857Y-78498000D02*
X121554714Y-78426571D01*
X121769000Y-78426571D01*
X121983285Y-78498000D01*
X122126142Y-78640857D01*
X122197571Y-78783714D01*
X122269000Y-79069428D01*
X122269000Y-79283714D01*
X122197571Y-79569428D01*
X122126142Y-79712285D01*
X121983285Y-79855142D01*
X121769000Y-79926571D01*
X121626142Y-79926571D01*
X121411857Y-79855142D01*
X121340428Y-79783714D01*
X121340428Y-79283714D01*
X121626142Y-79283714D01*
X120697571Y-79926571D02*
X120697571Y-78426571D01*
X119840428Y-79926571D01*
X119840428Y-78426571D01*
X119126142Y-79926571D02*
X119126142Y-78426571D01*
X118769000Y-78426571D01*
X118554714Y-78498000D01*
X118411857Y-78640857D01*
X118340428Y-78783714D01*
X118269000Y-79069428D01*
X118269000Y-79283714D01*
X118340428Y-79569428D01*
X118411857Y-79712285D01*
X118554714Y-79855142D01*
X118769000Y-79926571D01*
X119126142Y-79926571D01*
X121816714Y-82720571D02*
X121816714Y-81220571D01*
X121102428Y-82720571D02*
X121102428Y-81220571D01*
X120245285Y-82720571D01*
X120245285Y-81220571D01*
X107568857Y-81419000D02*
X107711714Y-81347571D01*
X107926000Y-81347571D01*
X108140285Y-81419000D01*
X108283142Y-81561857D01*
X108354571Y-81704714D01*
X108426000Y-81990428D01*
X108426000Y-82204714D01*
X108354571Y-82490428D01*
X108283142Y-82633285D01*
X108140285Y-82776142D01*
X107926000Y-82847571D01*
X107783142Y-82847571D01*
X107568857Y-82776142D01*
X107497428Y-82704714D01*
X107497428Y-82204714D01*
X107783142Y-82204714D01*
X106854571Y-82847571D02*
X106854571Y-81347571D01*
X105997428Y-82847571D01*
X105997428Y-81347571D01*
X105283142Y-82847571D02*
X105283142Y-81347571D01*
X104926000Y-81347571D01*
X104711714Y-81419000D01*
X104568857Y-81561857D01*
X104497428Y-81704714D01*
X104426000Y-81990428D01*
X104426000Y-82204714D01*
X104497428Y-82490428D01*
X104568857Y-82633285D01*
X104711714Y-82776142D01*
X104926000Y-82847571D01*
X105283142Y-82847571D01*
X108553000Y-72687571D02*
X108553000Y-71187571D01*
X107981571Y-71187571D01*
X107838714Y-71259000D01*
X107767285Y-71330428D01*
X107695857Y-71473285D01*
X107695857Y-71687571D01*
X107767285Y-71830428D01*
X107838714Y-71901857D01*
X107981571Y-71973285D01*
X108553000Y-71973285D01*
X107195857Y-71187571D02*
X106838714Y-72687571D01*
X106553000Y-71616142D01*
X106267285Y-72687571D01*
X105910142Y-71187571D01*
X104481571Y-72687571D02*
X104981571Y-71973285D01*
X105338714Y-72687571D02*
X105338714Y-71187571D01*
X104767285Y-71187571D01*
X104624428Y-71259000D01*
X104553000Y-71330428D01*
X104481571Y-71473285D01*
X104481571Y-71687571D01*
X104553000Y-71830428D01*
X104624428Y-71901857D01*
X104767285Y-71973285D01*
X105338714Y-71973285D01*
M02*
